<?xml version="1.0" encoding="UTF-8" standalone="no"?>
<svg
   xmlns:dc="http://purl.org/dc/elements/1.1/"
   xmlns:cc="http://creativecommons.org/ns#"
   xmlns:rdf="http://www.w3.org/1999/02/22-rdf-syntax-ns#"
   xmlns:svg="http://www.w3.org/2000/svg"
   xmlns="http://www.w3.org/2000/svg"
   viewBox="0 0 76.800003 80.73333"
   height="80.73333"
   width="76.800003"
   xml:space="preserve"
   id="svg2"
   version="1.1"><metadata
     id="metadata8"><rdf:RDF><cc:Work
         rdf:about=""><dc:format>image/svg+xml</dc:format><dc:type
           rdf:resource="http://purl.org/dc/dcmitype/StillImage" /></cc:Work></rdf:RDF></metadata><defs
     id="defs6" /><g
     transform="matrix(1.3333333,0,0,-1.3333333,0,80.733333)"
     id="g10"><g
       transform="scale(0.1)"
       id="g12"><path
         id="path14"
         style="fill:#ffffff;fill-opacity:1;fill-rule:nonzero;stroke:none"
         d="M 0,0 H 922.961 V 749.766 H 0 Z" /><g
         transform="scale(10)"
         id="g16"><text
           id="text20"
           style="font-variant:normal;font-weight:normal;font-size:31.92000008px;font-family:'Times New Roman';-inkscape-font-specification:TimesNewRoman;writing-mode:lr-tb;fill:#ffffff;fill-opacity:1;fill-rule:nonzero;stroke:none"
           transform="matrix(1,0,0,-1,-572.744,20.2566)"><tspan
             id="tspan18"
             y="0"
             x="0"></tspan></text>
</g><g
         transform="scale(10)"
         id="g22"><text
           id="text26"
           style="font-variant:normal;font-weight:normal;font-size:7.92000008px;font-family:'Times New Roman';-inkscape-font-specification:TimesNewRoman;writing-mode:lr-tb;fill:#231f20;fill-opacity:1;fill-rule:nonzero;stroke:none"
           transform="matrix(1,0,0,-1,76.9359,-456.384)"><tspan
             id="tspan24"
             y="0"
             x="0"></tspan></text>
</g><path
         id="path28"
         style="fill:#bdbcbc;fill-opacity:1;fill-rule:nonzero;stroke:none"
         d="m 23.1719,39.5742 h 529.969 v 529.973 H 23.1719 Z" /><path
         id="path30"
         style="fill:none;stroke:#bdbcbc;stroke-width:9.81000042;stroke-linecap:square;stroke-linejoin:miter;stroke-miterlimit:10;stroke-dasharray:none;stroke-opacity:1"
         d="m 23.1719,39.5742 h 529.969 v 529.973 H 23.1719 Z" /><path
         id="path32"
         style="fill:#ffffff;fill-opacity:1;fill-rule:nonzero;stroke:none"
         d="m 67.3398,83.7461 h 441.641 v 441.641 H 67.3398 Z" /><path
         id="path34"
         style="fill:none;stroke:#ffffff;stroke-width:9.81000042;stroke-linecap:square;stroke-linejoin:miter;stroke-miterlimit:10;stroke-dasharray:none;stroke-opacity:1"
         d="m 67.3398,83.7461 h 441.641 v 441.641 H 67.3398 Z" /><path
         id="path36"
         style="fill:#bdbcbc;fill-opacity:1;fill-rule:nonzero;stroke:none"
         d="M 111.5,127.906 H 464.813 V 481.215 H 111.5 Z" /><path
         id="path38"
         style="fill:none;stroke:#bdbcbc;stroke-width:9.81000042;stroke-linecap:square;stroke-linejoin:miter;stroke-miterlimit:10;stroke-dasharray:none;stroke-opacity:1"
         d="M 111.5,127.906 H 464.813 V 481.215 H 111.5 Z" /><path
         id="path40"
         style="fill:#ffffff;fill-opacity:1;fill-rule:nonzero;stroke:none"
         d="m 268.531,348.734 h 39.2617 V 172.074 H 268.531 Z m 0,-176.66 h 39.2617 V 152.4451 H 268.531 Z m 0,196.281 h 39.2617 V 348.7261 H 268.531 Z" /><path
         id="path42"
         style="fill:none;stroke:#ffffff;stroke-width:39.25999832;stroke-linecap:butt;stroke-linejoin:miter;stroke-miterlimit:10;stroke-dasharray:none;stroke-opacity:1"
         d="m 398.57,370.805 c -24.379,0 -44.168,-19.778 -44.168,-44.16" /><path
         id="path44"
         style="fill:#ffffff;fill-opacity:1;fill-rule:nonzero;stroke:none"
         d="m 334.781,304.566 h 39.2578 V 172.074 H 334.781 Z m 0,-132.492 h 39.2578 V 152.4451 H 334.781 Z m 0,152.121 h 39.2578 V 304.5661 H 334.781 Z" /><path
         id="path46"
         style="fill:none;stroke:#ffffff;stroke-width:39.25999832;stroke-linecap:butt;stroke-linejoin:miter;stroke-miterlimit:10;stroke-dasharray:none;stroke-opacity:1"
         d="m 221.91,326.645 c 0,24.382 -19.777,44.16 -44.16,44.16" /><path
         id="path48"
         style="fill:#ffffff;fill-opacity:1;fill-rule:nonzero;stroke:none"
         d="m 202.281,304.566 h 39.2578 V 172.074 H 202.281 Z m 0,-132.492 h 39.2578 V 152.4451 H 202.281 Z m 0,152.121 h 39.2578 V 304.5661 H 202.281 Z" /><path
         id="path50"
         style="fill:#ffffff;fill-opacity:1;fill-rule:nonzero;stroke:none"
         d="M 177.75,434.605 H 398.57 V 395.3472 H 177.75 Z m 220.82,0 h 19.6289 V 395.3472 H 398.57 Z m -240.449,0 h 19.6289 V 395.3472 H 158.121 Z" /><g
         transform="scale(10)"
         id="g52"><text
           id="text60"
           style="font-variant:normal;font-weight:normal;font-size:48px;font-family:'Times New Roman';-inkscape-font-specification:TimesNewRoman;writing-mode:lr-tb;fill:#231f20;fill-opacity:1;fill-rule:nonzero;stroke:none"
           transform="matrix(1,0,0,-1,-408.104,-177.023)"><tspan
             id="tspan54"
             y="0"
             x="0 34.655998 55.967999 79.968002 95.952003 119.952 143.952 156.09631 198.76831 222.76831 246.76831 268.08032">1HXURQ0RGHO</tspan><tspan
             id="tspan56"
             y="57.599998"
             x="106.08 127.44041 151.48871">DQG</tspan><tspan
             id="tspan58"
             y="115.2"
             x="-78.480003 -43.775707 -22.415319 -9.0230293 25.681261 49.729553 65.761551 89.809845 102.09763 136.80193 152.83392 174.19434 198.24263 211.63493 225.02724 246.38763 267.74805 281.14035 305.18866 321.22064 342.58105">1HWZRUN$UFKLWHFWXUHV</tspan></text>
</g></g></g></svg>