<?xml version="1.0" encoding="UTF-8" standalone="no"?>
<!DOCTYPE svg PUBLIC "-//W3C//DTD SVG 1.1//EN"
 "http://www.w3.org/Graphics/SVG/1.1/DTD/svg11.dtd">
<!-- Generated by graphviz version 2.38.0 (20140413.2041)
 -->
<!-- Title: Tree Pages: 1 -->
<svg width="297pt" height="373pt"
 viewBox="0.00 0.00 297.00 373.00" xmlns="http://www.w3.org/2000/svg" xmlns:xlink="http://www.w3.org/1999/xlink">
<g id="graph0" class="graph" transform="scale(1 1) rotate(0) translate(4 369)">
<title>Tree</title>
<polygon fill="white" stroke="none" points="-4,4 -4,-369 293,-369 293,4 -4,4"/>
<!-- 0 -->
<g id="node1" class="node"><title>0</title>
<path fill="#bddef6" stroke="black" d="M229.5,-365C229.5,-365 125.5,-365 125.5,-365 119.5,-365 113.5,-359 113.5,-353 113.5,-353 113.5,-309 113.5,-309 113.5,-303 119.5,-297 125.5,-297 125.5,-297 229.5,-297 229.5,-297 235.5,-297 241.5,-303 241.5,-309 241.5,-309 241.5,-353 241.5,-353 241.5,-359 235.5,-365 229.5,-365"/>
<text text-anchor="middle" x="177.5" y="-349.8" font-family="Helvetica,sans-Serif" font-size="14.00">voice pitch &lt;= 0.5</text>
<text text-anchor="middle" x="177.5" y="-334.8" font-family="Helvetica,sans-Serif" font-size="14.00">gini = 0.48</text>
<text text-anchor="middle" x="177.5" y="-319.8" font-family="Helvetica,sans-Serif" font-size="14.00">samples = 5</text>
<text text-anchor="middle" x="177.5" y="-304.8" font-family="Helvetica,sans-Serif" font-size="14.00">value = [2, 3]</text>
</g>
<!-- 1 -->
<g id="node2" class="node"><title>1</title>
<path fill="turquoise" stroke="black" d="M161.5,-261C161.5,-261 69.5,-261 69.5,-261 63.5,-261 57.5,-255 57.5,-249 57.5,-249 57.5,-205 57.5,-205 57.5,-199 63.5,-193 69.5,-193 69.5,-193 161.5,-193 161.5,-193 167.5,-193 173.5,-199 173.5,-205 173.5,-205 173.5,-249 173.5,-249 173.5,-255 167.5,-261 161.5,-261"/>
<text text-anchor="middle" x="115.5" y="-245.8" font-family="Helvetica,sans-Serif" font-size="14.00">height &lt;= 175.5</text>
<text text-anchor="middle" x="115.5" y="-230.8" font-family="Helvetica,sans-Serif" font-size="14.00">gini = 0.444</text>
<text text-anchor="middle" x="115.5" y="-215.8" font-family="Helvetica,sans-Serif" font-size="14.00">samples = 3</text>
<text text-anchor="middle" x="115.5" y="-200.8" font-family="Helvetica,sans-Serif" font-size="14.00">value = [2, 1]</text>
</g>
<!-- 0&#45;&gt;1 -->
<g id="edge1" class="edge"><title>0&#45;&gt;1</title>
<path fill="none" stroke="black" d="M157.37,-296.884C152.173,-288.332 146.508,-279.013 141.073,-270.072"/>
<polygon fill="black" stroke="black" points="143.926,-268.027 135.741,-261.299 137.944,-271.663 143.926,-268.027"/>
<text text-anchor="middle" x="129.817" y="-281.887" font-family="Helvetica,sans-Serif" font-size="14.00">True</text>
</g>
<!-- 6 -->
<g id="node7" class="node"><title>6</title>
<path fill="orange" stroke="black" d="M277,-253.5C277,-253.5 204,-253.5 204,-253.5 198,-253.5 192,-247.5 192,-241.5 192,-241.5 192,-212.5 192,-212.5 192,-206.5 198,-200.5 204,-200.5 204,-200.5 277,-200.5 277,-200.5 283,-200.5 289,-206.5 289,-212.5 289,-212.5 289,-241.5 289,-241.5 289,-247.5 283,-253.5 277,-253.5"/>
<text text-anchor="middle" x="240.5" y="-238.3" font-family="Helvetica,sans-Serif" font-size="14.00">gini = 0.0</text>
<text text-anchor="middle" x="240.5" y="-223.3" font-family="Helvetica,sans-Serif" font-size="14.00">samples = 2</text>
<text text-anchor="middle" x="240.5" y="-208.3" font-family="Helvetica,sans-Serif" font-size="14.00">value = [0, 2]</text>
</g>
<!-- 0&#45;&gt;6 -->
<g id="edge6" class="edge"><title>0&#45;&gt;6</title>
<path fill="none" stroke="black" d="M197.954,-296.884C204.815,-285.776 212.476,-273.372 219.386,-262.184"/>
<polygon fill="black" stroke="black" points="222.461,-263.867 224.738,-253.52 216.505,-260.189 222.461,-263.867"/>
<text text-anchor="middle" x="230.488" y="-274.15" font-family="Helvetica,sans-Serif" font-size="14.00">False</text>
</g>
<!-- 2 -->
<g id="node3" class="node"><title>2</title>
<path fill="turquoise" stroke="black" d="M85,-149.5C85,-149.5 12,-149.5 12,-149.5 6,-149.5 0,-143.5 0,-137.5 0,-137.5 0,-108.5 0,-108.5 0,-102.5 6,-96.5 12,-96.5 12,-96.5 85,-96.5 85,-96.5 91,-96.5 97,-102.5 97,-108.5 97,-108.5 97,-137.5 97,-137.5 97,-143.5 91,-149.5 85,-149.5"/>
<text text-anchor="middle" x="48.5" y="-134.3" font-family="Helvetica,sans-Serif" font-size="14.00">gini = 0.0</text>
<text text-anchor="middle" x="48.5" y="-119.3" font-family="Helvetica,sans-Serif" font-size="14.00">samples = 1</text>
<text text-anchor="middle" x="48.5" y="-104.3" font-family="Helvetica,sans-Serif" font-size="14.00">value = [1, 0]</text>
</g>
<!-- 1&#45;&gt;2 -->
<g id="edge2" class="edge"><title>1&#45;&gt;2</title>
<path fill="none" stroke="black" d="M93.747,-192.884C86.4507,-181.776 78.3031,-169.372 70.9541,-158.184"/>
<polygon fill="black" stroke="black" points="73.6786,-155.957 65.2631,-149.52 67.8279,-159.8 73.6786,-155.957"/>
</g>
<!-- 3 -->
<g id="node4" class="node"><title>3</title>
<path fill="orange" stroke="black" d="M237.5,-157C237.5,-157 127.5,-157 127.5,-157 121.5,-157 115.5,-151 115.5,-145 115.5,-145 115.5,-101 115.5,-101 115.5,-95 121.5,-89 127.5,-89 127.5,-89 237.5,-89 237.5,-89 243.5,-89 249.5,-95 249.5,-101 249.5,-101 249.5,-145 249.5,-145 249.5,-151 243.5,-157 237.5,-157"/>
<text text-anchor="middle" x="182.5" y="-141.8" font-family="Helvetica,sans-Serif" font-size="14.00">hair length &lt;= 28.5</text>
<text text-anchor="middle" x="182.5" y="-126.8" font-family="Helvetica,sans-Serif" font-size="14.00">gini = 0.5</text>
<text text-anchor="middle" x="182.5" y="-111.8" font-family="Helvetica,sans-Serif" font-size="14.00">samples = 2</text>
<text text-anchor="middle" x="182.5" y="-96.8" font-family="Helvetica,sans-Serif" font-size="14.00">value = [1, 1]</text>
</g>
<!-- 1&#45;&gt;3 -->
<g id="edge3" class="edge"><title>1&#45;&gt;3</title>
<path fill="none" stroke="black" d="M137.253,-192.884C142.928,-184.243 149.119,-174.819 155.048,-165.793"/>
<polygon fill="black" stroke="black" points="158.062,-167.579 160.627,-157.299 152.211,-163.736 158.062,-167.579"/>
</g>
<!-- 4 -->
<g id="node5" class="node"><title>4</title>
<path fill="turquoise" stroke="black" d="M161,-53C161,-53 88,-53 88,-53 82,-53 76,-47 76,-41 76,-41 76,-12 76,-12 76,-6 82,-0 88,-0 88,-0 161,-0 161,-0 167,-0 173,-6 173,-12 173,-12 173,-41 173,-41 173,-47 167,-53 161,-53"/>
<text text-anchor="middle" x="124.5" y="-37.8" font-family="Helvetica,sans-Serif" font-size="14.00">gini = 0.0</text>
<text text-anchor="middle" x="124.5" y="-22.8" font-family="Helvetica,sans-Serif" font-size="14.00">samples = 1</text>
<text text-anchor="middle" x="124.5" y="-7.8" font-family="Helvetica,sans-Serif" font-size="14.00">value = [1, 0]</text>
</g>
<!-- 3&#45;&gt;4 -->
<g id="edge4" class="edge"><title>3&#45;&gt;4</title>
<path fill="none" stroke="black" d="M162.214,-88.9485C156.824,-80.1664 150.992,-70.6629 145.561,-61.815"/>
<polygon fill="black" stroke="black" points="148.51,-59.9287 140.296,-53.2367 142.544,-63.5903 148.51,-59.9287"/>
</g>
<!-- 5 -->
<g id="node6" class="node"><title>5</title>
<path fill="orange" stroke="black" d="M276,-53C276,-53 203,-53 203,-53 197,-53 191,-47 191,-41 191,-41 191,-12 191,-12 191,-6 197,-0 203,-0 203,-0 276,-0 276,-0 282,-0 288,-6 288,-12 288,-12 288,-41 288,-41 288,-47 282,-53 276,-53"/>
<text text-anchor="middle" x="239.5" y="-37.8" font-family="Helvetica,sans-Serif" font-size="14.00">gini = 0.0</text>
<text text-anchor="middle" x="239.5" y="-22.8" font-family="Helvetica,sans-Serif" font-size="14.00">samples = 1</text>
<text text-anchor="middle" x="239.5" y="-7.8" font-family="Helvetica,sans-Serif" font-size="14.00">value = [0, 1]</text>
</g>
<!-- 3&#45;&gt;5 -->
<g id="edge5" class="edge"><title>3&#45;&gt;5</title>
<path fill="none" stroke="black" d="M202.436,-88.9485C207.733,-80.1664 213.465,-70.6629 218.802,-61.815"/>
<polygon fill="black" stroke="black" points="221.808,-63.6074 223.976,-53.2367 215.814,-59.9919 221.808,-63.6074"/>
</g>
</g>
</svg>
