<?xml version="1.0" encoding="UTF-8" standalone="no"?>
<!DOCTYPE svg PUBLIC "-//W3C//DTD SVG 1.1//EN"
 "http://www.w3.org/Graphics/SVG/1.1/DTD/svg11.dtd">
<!-- Generated by graphviz version 2.38.0 (20140413.2041)
 -->
<!-- Title: Tree Pages: 1 -->
<svg width="887pt" height="581pt"
 viewBox="0.00 0.00 887.00 581.00" xmlns="http://www.w3.org/2000/svg" xmlns:xlink="http://www.w3.org/1999/xlink">
<g id="graph0" class="graph" transform="scale(1 1) rotate(0) translate(4 577)">
<title>Tree</title>
<polygon fill="white" stroke="none" points="-4,4 -4,-577 883,-577 883,4 -4,4"/>
<!-- 0 -->
<g id="node1" class="node"><title>0</title>
<path fill="#ffffff" stroke="black" d="M528.5,-573C528.5,-573 378.5,-573 378.5,-573 372.5,-573 366.5,-567 366.5,-561 366.5,-561 366.5,-517 366.5,-517 366.5,-511 372.5,-505 378.5,-505 378.5,-505 528.5,-505 528.5,-505 534.5,-505 540.5,-511 540.5,-517 540.5,-517 540.5,-561 540.5,-561 540.5,-567 534.5,-573 528.5,-573"/>
<text text-anchor="middle" x="453.5" y="-557.8" font-family="Helvetica,sans-Serif" font-size="14.00">petal length (cm) &lt;= 2.45</text>
<text text-anchor="middle" x="453.5" y="-542.8" font-family="Helvetica,sans-Serif" font-size="14.00">gini = 0.667</text>
<text text-anchor="middle" x="453.5" y="-527.8" font-family="Helvetica,sans-Serif" font-size="14.00">samples = 150</text>
<text text-anchor="middle" x="453.5" y="-512.8" font-family="Helvetica,sans-Serif" font-size="14.00">value = [50, 50, 50]</text>
</g>
<!-- 1 -->
<g id="node2" class="node"><title>1</title>
<path fill="brown" stroke="black" d="M421,-461.5C421,-461.5 324,-461.5 324,-461.5 318,-461.5 312,-455.5 312,-449.5 312,-449.5 312,-420.5 312,-420.5 312,-414.5 318,-408.5 324,-408.5 324,-408.5 421,-408.5 421,-408.5 427,-408.5 433,-414.5 433,-420.5 433,-420.5 433,-449.5 433,-449.5 433,-455.5 427,-461.5 421,-461.5"/>
<text text-anchor="middle" x="372.5" y="-446.3" font-family="Helvetica,sans-Serif" font-size="14.00">gini = 0.0</text>
<text text-anchor="middle" x="372.5" y="-431.3" font-family="Helvetica,sans-Serif" font-size="14.00">samples = 50</text>
<text text-anchor="middle" x="372.5" y="-416.3" font-family="Helvetica,sans-Serif" font-size="14.00">value = [50, 0, 0]</text>
</g>
<!-- 0&#45;&gt;1 -->
<g id="edge1" class="edge"><title>0&#45;&gt;1</title>
<path fill="none" stroke="black" d="M427.202,-504.884C418.206,-493.556 408.14,-480.88 399.119,-469.521"/>
<polygon fill="black" stroke="black" points="401.726,-467.174 392.766,-461.52 396.244,-471.528 401.726,-467.174"/>
<text text-anchor="middle" x="389.916" y="-482.657" font-family="Helvetica,sans-Serif" font-size="14.00">True</text>
</g>
<!-- 2 -->
<g id="node3" class="node"><title>2</title>
<path fill="forestgreen" stroke="black" d="M607.5,-469C607.5,-469 463.5,-469 463.5,-469 457.5,-469 451.5,-463 451.5,-457 451.5,-457 451.5,-413 451.5,-413 451.5,-407 457.5,-401 463.5,-401 463.5,-401 607.5,-401 607.5,-401 613.5,-401 619.5,-407 619.5,-413 619.5,-413 619.5,-457 619.5,-457 619.5,-463 613.5,-469 607.5,-469"/>
<text text-anchor="middle" x="535.5" y="-453.8" font-family="Helvetica,sans-Serif" font-size="14.00">petal width (cm) &lt;= 1.75</text>
<text text-anchor="middle" x="535.5" y="-438.8" font-family="Helvetica,sans-Serif" font-size="14.00">gini = 0.5</text>
<text text-anchor="middle" x="535.5" y="-423.8" font-family="Helvetica,sans-Serif" font-size="14.00">samples = 100</text>
<text text-anchor="middle" x="535.5" y="-408.8" font-family="Helvetica,sans-Serif" font-size="14.00">value = [0, 50, 50]</text>
</g>
<!-- 0&#45;&gt;2 -->
<g id="edge2" class="edge"><title>0&#45;&gt;2</title>
<path fill="none" stroke="black" d="M480.123,-504.884C487.212,-496.065 494.958,-486.43 502.35,-477.235"/>
<polygon fill="black" stroke="black" points="505.192,-479.286 508.73,-469.299 499.736,-474.9 505.192,-479.286"/>
<text text-anchor="middle" x="511.431" y="-490.453" font-family="Helvetica,sans-Serif" font-size="14.00">False</text>
</g>
<!-- 3 -->
<g id="node4" class="node"><title>3</title>
<path fill="brown" stroke="black" d="M495.5,-365C495.5,-365 345.5,-365 345.5,-365 339.5,-365 333.5,-359 333.5,-353 333.5,-353 333.5,-309 333.5,-309 333.5,-303 339.5,-297 345.5,-297 345.5,-297 495.5,-297 495.5,-297 501.5,-297 507.5,-303 507.5,-309 507.5,-309 507.5,-353 507.5,-353 507.5,-359 501.5,-365 495.5,-365"/>
<text text-anchor="middle" x="420.5" y="-349.8" font-family="Helvetica,sans-Serif" font-size="14.00">petal length (cm) &lt;= 4.95</text>
<text text-anchor="middle" x="420.5" y="-334.8" font-family="Helvetica,sans-Serif" font-size="14.00">gini = 0.168</text>
<text text-anchor="middle" x="420.5" y="-319.8" font-family="Helvetica,sans-Serif" font-size="14.00">samples = 54</text>
<text text-anchor="middle" x="420.5" y="-304.8" font-family="Helvetica,sans-Serif" font-size="14.00">value = [0, 49, 5]</text>
</g>
<!-- 2&#45;&gt;3 -->
<g id="edge3" class="edge"><title>2&#45;&gt;3</title>
<path fill="none" stroke="black" d="M498.163,-400.884C487.819,-391.709 476.478,-381.65 465.736,-372.123"/>
<polygon fill="black" stroke="black" points="467.847,-369.317 458.043,-365.299 463.202,-374.553 467.847,-369.317"/>
</g>
<!-- 12 -->
<g id="node13" class="node"><title>12</title>
<path fill="forestgreen" stroke="black" d="M725.5,-365C725.5,-365 575.5,-365 575.5,-365 569.5,-365 563.5,-359 563.5,-353 563.5,-353 563.5,-309 563.5,-309 563.5,-303 569.5,-297 575.5,-297 575.5,-297 725.5,-297 725.5,-297 731.5,-297 737.5,-303 737.5,-309 737.5,-309 737.5,-353 737.5,-353 737.5,-359 731.5,-365 725.5,-365"/>
<text text-anchor="middle" x="650.5" y="-349.8" font-family="Helvetica,sans-Serif" font-size="14.00">petal length (cm) &lt;= 4.85</text>
<text text-anchor="middle" x="650.5" y="-334.8" font-family="Helvetica,sans-Serif" font-size="14.00">gini = 0.043</text>
<text text-anchor="middle" x="650.5" y="-319.8" font-family="Helvetica,sans-Serif" font-size="14.00">samples = 46</text>
<text text-anchor="middle" x="650.5" y="-304.8" font-family="Helvetica,sans-Serif" font-size="14.00">value = [0, 1, 45]</text>
</g>
<!-- 2&#45;&gt;12 -->
<g id="edge12" class="edge"><title>2&#45;&gt;12</title>
<path fill="none" stroke="black" d="M572.837,-400.884C583.181,-391.709 594.522,-381.65 605.264,-372.123"/>
<polygon fill="black" stroke="black" points="607.798,-374.553 612.957,-365.299 603.153,-369.317 607.798,-374.553"/>
</g>
<!-- 4 -->
<g id="node5" class="node"><title>4</title>
<path fill="brown" stroke="black" d="M267.5,-261C267.5,-261 123.5,-261 123.5,-261 117.5,-261 111.5,-255 111.5,-249 111.5,-249 111.5,-205 111.5,-205 111.5,-199 117.5,-193 123.5,-193 123.5,-193 267.5,-193 267.5,-193 273.5,-193 279.5,-199 279.5,-205 279.5,-205 279.5,-249 279.5,-249 279.5,-255 273.5,-261 267.5,-261"/>
<text text-anchor="middle" x="195.5" y="-245.8" font-family="Helvetica,sans-Serif" font-size="14.00">petal width (cm) &lt;= 1.65</text>
<text text-anchor="middle" x="195.5" y="-230.8" font-family="Helvetica,sans-Serif" font-size="14.00">gini = 0.041</text>
<text text-anchor="middle" x="195.5" y="-215.8" font-family="Helvetica,sans-Serif" font-size="14.00">samples = 48</text>
<text text-anchor="middle" x="195.5" y="-200.8" font-family="Helvetica,sans-Serif" font-size="14.00">value = [0, 47, 1]</text>
</g>
<!-- 3&#45;&gt;4 -->
<g id="edge4" class="edge"><title>3&#45;&gt;4</title>
<path fill="none" stroke="black" d="M347.449,-296.884C325.231,-286.812 300.664,-275.674 277.876,-265.344"/>
<polygon fill="black" stroke="black" points="279.122,-262.066 268.569,-261.125 276.232,-268.441 279.122,-262.066"/>
</g>
<!-- 7 -->
<g id="node8" class="node"><title>7</title>
<path fill="forestgreen" stroke="black" d="M492.5,-261C492.5,-261 348.5,-261 348.5,-261 342.5,-261 336.5,-255 336.5,-249 336.5,-249 336.5,-205 336.5,-205 336.5,-199 342.5,-193 348.5,-193 348.5,-193 492.5,-193 492.5,-193 498.5,-193 504.5,-199 504.5,-205 504.5,-205 504.5,-249 504.5,-249 504.5,-255 498.5,-261 492.5,-261"/>
<text text-anchor="middle" x="420.5" y="-245.8" font-family="Helvetica,sans-Serif" font-size="14.00">petal width (cm) &lt;= 1.55</text>
<text text-anchor="middle" x="420.5" y="-230.8" font-family="Helvetica,sans-Serif" font-size="14.00">gini = 0.444</text>
<text text-anchor="middle" x="420.5" y="-215.8" font-family="Helvetica,sans-Serif" font-size="14.00">samples = 6</text>
<text text-anchor="middle" x="420.5" y="-200.8" font-family="Helvetica,sans-Serif" font-size="14.00">value = [0, 2, 4]</text>
</g>
<!-- 3&#45;&gt;7 -->
<g id="edge7" class="edge"><title>3&#45;&gt;7</title>
<path fill="none" stroke="black" d="M420.5,-296.884C420.5,-288.778 420.5,-279.982 420.5,-271.472"/>
<polygon fill="black" stroke="black" points="424,-271.299 420.5,-261.299 417,-271.299 424,-271.299"/>
</g>
<!-- 5 -->
<g id="node6" class="node"><title>5</title>
<path fill="brown" stroke="black" d="M109,-149.5C109,-149.5 12,-149.5 12,-149.5 6,-149.5 0,-143.5 0,-137.5 0,-137.5 0,-108.5 0,-108.5 0,-102.5 6,-96.5 12,-96.5 12,-96.5 109,-96.5 109,-96.5 115,-96.5 121,-102.5 121,-108.5 121,-108.5 121,-137.5 121,-137.5 121,-143.5 115,-149.5 109,-149.5"/>
<text text-anchor="middle" x="60.5" y="-134.3" font-family="Helvetica,sans-Serif" font-size="14.00">gini = 0.0</text>
<text text-anchor="middle" x="60.5" y="-119.3" font-family="Helvetica,sans-Serif" font-size="14.00">samples = 47</text>
<text text-anchor="middle" x="60.5" y="-104.3" font-family="Helvetica,sans-Serif" font-size="14.00">value = [0, 47, 0]</text>
</g>
<!-- 4&#45;&gt;5 -->
<g id="edge5" class="edge"><title>4&#45;&gt;5</title>
<path fill="none" stroke="black" d="M151.669,-192.884C135.803,-180.896 117.94,-167.399 102.257,-155.549"/>
<polygon fill="black" stroke="black" points="104.365,-152.756 94.2764,-149.52 100.145,-158.341 104.365,-152.756"/>
</g>
<!-- 6 -->
<g id="node7" class="node"><title>6</title>
<path fill="forestgreen" stroke="black" d="M240,-149.5C240,-149.5 151,-149.5 151,-149.5 145,-149.5 139,-143.5 139,-137.5 139,-137.5 139,-108.5 139,-108.5 139,-102.5 145,-96.5 151,-96.5 151,-96.5 240,-96.5 240,-96.5 246,-96.5 252,-102.5 252,-108.5 252,-108.5 252,-137.5 252,-137.5 252,-143.5 246,-149.5 240,-149.5"/>
<text text-anchor="middle" x="195.5" y="-134.3" font-family="Helvetica,sans-Serif" font-size="14.00">gini = 0.0</text>
<text text-anchor="middle" x="195.5" y="-119.3" font-family="Helvetica,sans-Serif" font-size="14.00">samples = 1</text>
<text text-anchor="middle" x="195.5" y="-104.3" font-family="Helvetica,sans-Serif" font-size="14.00">value = [0, 0, 1]</text>
</g>
<!-- 4&#45;&gt;6 -->
<g id="edge6" class="edge"><title>4&#45;&gt;6</title>
<path fill="none" stroke="black" d="M195.5,-192.884C195.5,-182.326 195.5,-170.597 195.5,-159.854"/>
<polygon fill="black" stroke="black" points="199,-159.52 195.5,-149.52 192,-159.52 199,-159.52"/>
</g>
<!-- 8 -->
<g id="node9" class="node"><title>8</title>
<path fill="brown" stroke="black" d="M371,-149.5C371,-149.5 282,-149.5 282,-149.5 276,-149.5 270,-143.5 270,-137.5 270,-137.5 270,-108.5 270,-108.5 270,-102.5 276,-96.5 282,-96.5 282,-96.5 371,-96.5 371,-96.5 377,-96.5 383,-102.5 383,-108.5 383,-108.5 383,-137.5 383,-137.5 383,-143.5 377,-149.5 371,-149.5"/>
<text text-anchor="middle" x="326.5" y="-134.3" font-family="Helvetica,sans-Serif" font-size="14.00">gini = 0.0</text>
<text text-anchor="middle" x="326.5" y="-119.3" font-family="Helvetica,sans-Serif" font-size="14.00">samples = 3</text>
<text text-anchor="middle" x="326.5" y="-104.3" font-family="Helvetica,sans-Serif" font-size="14.00">value = [0, 0, 3]</text>
</g>
<!-- 7&#45;&gt;8 -->
<g id="edge8" class="edge"><title>7&#45;&gt;8</title>
<path fill="none" stroke="black" d="M389.981,-192.884C379.44,-181.446 367.633,-168.634 357.087,-157.19"/>
<polygon fill="black" stroke="black" points="359.369,-154.502 350.018,-149.52 354.221,-159.245 359.369,-154.502"/>
</g>
<!-- 9 -->
<g id="node10" class="node"><title>9</title>
<path fill="forestgreen" stroke="black" d="M563.5,-157C563.5,-157 413.5,-157 413.5,-157 407.5,-157 401.5,-151 401.5,-145 401.5,-145 401.5,-101 401.5,-101 401.5,-95 407.5,-89 413.5,-89 413.5,-89 563.5,-89 563.5,-89 569.5,-89 575.5,-95 575.5,-101 575.5,-101 575.5,-145 575.5,-145 575.5,-151 569.5,-157 563.5,-157"/>
<text text-anchor="middle" x="488.5" y="-141.8" font-family="Helvetica,sans-Serif" font-size="14.00">petal length (cm) &lt;= 5.45</text>
<text text-anchor="middle" x="488.5" y="-126.8" font-family="Helvetica,sans-Serif" font-size="14.00">gini = 0.444</text>
<text text-anchor="middle" x="488.5" y="-111.8" font-family="Helvetica,sans-Serif" font-size="14.00">samples = 3</text>
<text text-anchor="middle" x="488.5" y="-96.8" font-family="Helvetica,sans-Serif" font-size="14.00">value = [0, 2, 1]</text>
</g>
<!-- 7&#45;&gt;9 -->
<g id="edge9" class="edge"><title>7&#45;&gt;9</title>
<path fill="none" stroke="black" d="M442.578,-192.884C448.338,-184.243 454.621,-174.819 460.638,-165.793"/>
<polygon fill="black" stroke="black" points="463.666,-167.561 466.3,-157.299 457.841,-163.678 463.666,-167.561"/>
</g>
<!-- 10 -->
<g id="node11" class="node"><title>10</title>
<path fill="brown" stroke="black" d="M467,-53C467,-53 378,-53 378,-53 372,-53 366,-47 366,-41 366,-41 366,-12 366,-12 366,-6 372,-0 378,-0 378,-0 467,-0 467,-0 473,-0 479,-6 479,-12 479,-12 479,-41 479,-41 479,-47 473,-53 467,-53"/>
<text text-anchor="middle" x="422.5" y="-37.8" font-family="Helvetica,sans-Serif" font-size="14.00">gini = 0.0</text>
<text text-anchor="middle" x="422.5" y="-22.8" font-family="Helvetica,sans-Serif" font-size="14.00">samples = 2</text>
<text text-anchor="middle" x="422.5" y="-7.8" font-family="Helvetica,sans-Serif" font-size="14.00">value = [0, 2, 0]</text>
</g>
<!-- 9&#45;&gt;10 -->
<g id="edge10" class="edge"><title>9&#45;&gt;10</title>
<path fill="none" stroke="black" d="M465.416,-88.9485C459.219,-80.0749 452.507,-70.4648 446.273,-61.5388"/>
<polygon fill="black" stroke="black" points="449.07,-59.4311 440.475,-53.2367 443.331,-63.4392 449.07,-59.4311"/>
</g>
<!-- 11 -->
<g id="node12" class="node"><title>11</title>
<path fill="forestgreen" stroke="black" d="M598,-53C598,-53 509,-53 509,-53 503,-53 497,-47 497,-41 497,-41 497,-12 497,-12 497,-6 503,-0 509,-0 509,-0 598,-0 598,-0 604,-0 610,-6 610,-12 610,-12 610,-41 610,-41 610,-47 604,-53 598,-53"/>
<text text-anchor="middle" x="553.5" y="-37.8" font-family="Helvetica,sans-Serif" font-size="14.00">gini = 0.0</text>
<text text-anchor="middle" x="553.5" y="-22.8" font-family="Helvetica,sans-Serif" font-size="14.00">samples = 1</text>
<text text-anchor="middle" x="553.5" y="-7.8" font-family="Helvetica,sans-Serif" font-size="14.00">value = [0, 0, 1]</text>
</g>
<!-- 9&#45;&gt;11 -->
<g id="edge11" class="edge"><title>9&#45;&gt;11</title>
<path fill="none" stroke="black" d="M511.234,-88.9485C517.337,-80.0749 523.947,-70.4648 530.087,-61.5388"/>
<polygon fill="black" stroke="black" points="533.014,-63.4594 535.798,-53.2367 527.247,-59.4924 533.014,-63.4594"/>
</g>
<!-- 13 -->
<g id="node14" class="node"><title>13</title>
<path fill="brown" stroke="black" d="M727.5,-261C727.5,-261 573.5,-261 573.5,-261 567.5,-261 561.5,-255 561.5,-249 561.5,-249 561.5,-205 561.5,-205 561.5,-199 567.5,-193 573.5,-193 573.5,-193 727.5,-193 727.5,-193 733.5,-193 739.5,-199 739.5,-205 739.5,-205 739.5,-249 739.5,-249 739.5,-255 733.5,-261 727.5,-261"/>
<text text-anchor="middle" x="650.5" y="-245.8" font-family="Helvetica,sans-Serif" font-size="14.00">sepal length (cm) &lt;= 5.95</text>
<text text-anchor="middle" x="650.5" y="-230.8" font-family="Helvetica,sans-Serif" font-size="14.00">gini = 0.444</text>
<text text-anchor="middle" x="650.5" y="-215.8" font-family="Helvetica,sans-Serif" font-size="14.00">samples = 3</text>
<text text-anchor="middle" x="650.5" y="-200.8" font-family="Helvetica,sans-Serif" font-size="14.00">value = [0, 1, 2]</text>
</g>
<!-- 12&#45;&gt;13 -->
<g id="edge13" class="edge"><title>12&#45;&gt;13</title>
<path fill="none" stroke="black" d="M650.5,-296.884C650.5,-288.778 650.5,-279.982 650.5,-271.472"/>
<polygon fill="black" stroke="black" points="654,-271.299 650.5,-261.299 647,-271.299 654,-271.299"/>
</g>
<!-- 16 -->
<g id="node17" class="node"><title>16</title>
<path fill="forestgreen" stroke="black" d="M867,-253.5C867,-253.5 770,-253.5 770,-253.5 764,-253.5 758,-247.5 758,-241.5 758,-241.5 758,-212.5 758,-212.5 758,-206.5 764,-200.5 770,-200.5 770,-200.5 867,-200.5 867,-200.5 873,-200.5 879,-206.5 879,-212.5 879,-212.5 879,-241.5 879,-241.5 879,-247.5 873,-253.5 867,-253.5"/>
<text text-anchor="middle" x="818.5" y="-238.3" font-family="Helvetica,sans-Serif" font-size="14.00">gini = 0.0</text>
<text text-anchor="middle" x="818.5" y="-223.3" font-family="Helvetica,sans-Serif" font-size="14.00">samples = 43</text>
<text text-anchor="middle" x="818.5" y="-208.3" font-family="Helvetica,sans-Serif" font-size="14.00">value = [0, 0, 43]</text>
</g>
<!-- 12&#45;&gt;16 -->
<g id="edge16" class="edge"><title>12&#45;&gt;16</title>
<path fill="none" stroke="black" d="M705.045,-296.884C725.242,-284.621 748.041,-270.779 767.875,-258.737"/>
<polygon fill="black" stroke="black" points="769.736,-261.702 776.467,-253.52 766.103,-255.718 769.736,-261.702"/>
</g>
<!-- 14 -->
<g id="node15" class="node"><title>14</title>
<path fill="brown" stroke="black" d="M695,-149.5C695,-149.5 606,-149.5 606,-149.5 600,-149.5 594,-143.5 594,-137.5 594,-137.5 594,-108.5 594,-108.5 594,-102.5 600,-96.5 606,-96.5 606,-96.5 695,-96.5 695,-96.5 701,-96.5 707,-102.5 707,-108.5 707,-108.5 707,-137.5 707,-137.5 707,-143.5 701,-149.5 695,-149.5"/>
<text text-anchor="middle" x="650.5" y="-134.3" font-family="Helvetica,sans-Serif" font-size="14.00">gini = 0.0</text>
<text text-anchor="middle" x="650.5" y="-119.3" font-family="Helvetica,sans-Serif" font-size="14.00">samples = 1</text>
<text text-anchor="middle" x="650.5" y="-104.3" font-family="Helvetica,sans-Serif" font-size="14.00">value = [0, 1, 0]</text>
</g>
<!-- 13&#45;&gt;14 -->
<g id="edge14" class="edge"><title>13&#45;&gt;14</title>
<path fill="none" stroke="black" d="M650.5,-192.884C650.5,-182.326 650.5,-170.597 650.5,-159.854"/>
<polygon fill="black" stroke="black" points="654,-159.52 650.5,-149.52 647,-159.52 654,-159.52"/>
</g>
<!-- 15 -->
<g id="node16" class="node"><title>15</title>
<path fill="forestgreen" stroke="black" d="M826,-149.5C826,-149.5 737,-149.5 737,-149.5 731,-149.5 725,-143.5 725,-137.5 725,-137.5 725,-108.5 725,-108.5 725,-102.5 731,-96.5 737,-96.5 737,-96.5 826,-96.5 826,-96.5 832,-96.5 838,-102.5 838,-108.5 838,-108.5 838,-137.5 838,-137.5 838,-143.5 832,-149.5 826,-149.5"/>
<text text-anchor="middle" x="781.5" y="-134.3" font-family="Helvetica,sans-Serif" font-size="14.00">gini = 0.0</text>
<text text-anchor="middle" x="781.5" y="-119.3" font-family="Helvetica,sans-Serif" font-size="14.00">samples = 2</text>
<text text-anchor="middle" x="781.5" y="-104.3" font-family="Helvetica,sans-Serif" font-size="14.00">value = [0, 0, 2]</text>
</g>
<!-- 13&#45;&gt;15 -->
<g id="edge15" class="edge"><title>13&#45;&gt;15</title>
<path fill="none" stroke="black" d="M693.032,-192.884C708.287,-181.006 725.444,-167.646 740.561,-155.876"/>
<polygon fill="black" stroke="black" points="742.984,-158.425 748.724,-149.52 738.684,-152.902 742.984,-158.425"/>
</g>
</g>
</svg>
